<svg width="122" height="119" viewBox="0 0 122 119" fill="none" xmlns="http://www.w3.org/2000/svg">
<path fill-rule="evenodd" clip-rule="evenodd" d="M61 0C27.2975 0 0 27.2997 0 61.005C0 87.9997 17.4612 110.8 41.7087 118.883C44.7587 119.417 45.9025 117.587 45.9025 115.986C45.9025 114.537 45.8263 109.733 45.8263 104.624C30.5 107.445 26.535 100.887 25.315 97.4555C24.6287 95.7016 21.655 90.2874 19.0625 88.8385C16.9275 87.6947 13.8775 84.8732 18.9862 84.7969C23.79 84.7207 27.2213 89.2198 28.365 91.0499C33.855 100.277 42.6238 97.6842 46.1313 96.0828C46.665 92.1175 48.2663 89.4486 50.02 87.9234C36.4475 86.3983 22.265 81.1366 22.265 57.8022C22.265 51.1679 24.6287 45.6775 28.5175 41.4071C27.9075 39.882 25.7725 33.629 29.1275 25.2408C29.1275 25.2408 34.2363 23.6394 45.9025 31.4938C50.7825 30.1212 55.9675 29.4349 61.1525 29.4349C66.3375 29.4349 71.5225 30.1212 76.4025 31.4938C88.0688 23.5632 93.1775 25.2408 93.1775 25.2408C96.5325 33.629 94.3975 39.882 93.7875 41.4071C97.6762 45.6775 100.04 51.0917 100.04 57.8022C100.04 81.2129 85.7813 86.3983 72.2088 87.9234C74.42 89.8298 76.3262 93.4901 76.3262 99.2094C76.3262 107.369 76.25 113.927 76.25 115.986C76.25 117.587 77.3937 119.494 80.4437 118.883C92.5534 114.795 103.076 107.012 110.531 96.629C117.985 86.2463 121.997 73.7871 122 61.005C122 27.2997 94.7025 0 61 0Z" fill="white"/>
</svg>
